<?xml version="1.0" encoding="utf-8"?>
<!-- Generator: Adobe Illustrator 24.0.2, SVG Export Plug-In . SVG Version: 6.00 Build 0)  -->
<svg version="1.1" id="Шар_1" xmlns="http://www.w3.org/2000/svg" xmlns:xlink="http://www.w3.org/1999/xlink" x="0px" y="0px"
	 viewBox="0 0 28 16" style="enable-background:new 0 0 28 16;" xml:space="preserve">
<style type="text/css">
	.st0{fill:#FFFFFF;}
</style>
<path class="st0" d="M10.4,10.8c-1.3,0-2.3,1-2.3,2.3c0,1.3,1,2.3,2.3,2.3c1.3,0,2.3-1,2.3-2.3C12.7,11.9,11.7,10.8,10.4,10.8z
	 M10.4,14.3c-0.6,0-1.2-0.5-1.2-1.1c0-0.6,0.5-1.1,1.2-1.1c0.6,0,1.2,0.5,1.2,1.1C11.5,13.8,11,14.3,10.4,14.3z M28,9.1v2.5
	c0,0.6-0.5,1.1-1.1,1.1h-1.2c-0.2-1.5-1.5-2.6-3.1-2.6c-1.6,0-2.8,1.1-3.1,2.6h-6.1c-0.2-1.5-1.5-2.6-3.1-2.6
	c-1.6,0-2.8,1.1-3.1,2.6H5.8c-0.6,0-1.1-0.5-1.1-1.1V9.1H28z M22.6,10.8c-1.3,0-2.3,1-2.3,2.3c0,1.3,1,2.3,2.3,2.3
	c1.3,0,2.3-1,2.3-2.3C24.9,11.9,23.9,10.8,22.6,10.8z M22.6,14.3c-0.6,0-1.2-0.5-1.2-1.1c0-0.6,0.5-1.1,1.2-1.1
	c0.6,0,1.2,0.5,1.2,1.1C23.8,13.8,23.3,14.3,22.6,14.3z M27.6,6.7l-4.4-4.3c-0.3-0.3-0.7-0.4-1.1-0.4h-2.2V1.1
	c0-0.6-0.5-1.1-1.1-1.1H5.8C5.2,0,4.7,0.5,4.7,1.1v0.2L0.1,1.8l8.1,1L0,3.6l8.2,1.1L0,5.5l4.7,0.9l0,2.2H28V7.7
	C28,7.3,27.8,6.9,27.6,6.7z M25.6,6.8h-4.3c-0.1,0-0.2-0.1-0.2-0.2V3.4c0-0.1,0.1-0.2,0.2-0.2h0.8c0,0,0.1,0,0.1,0l3.5,3.3
	C25.9,6.6,25.8,6.8,25.6,6.8z"/>
</svg>
