<?xml version="1.0" encoding="UTF-8"?>
<svg width="30px" height="30px" viewBox="0 0 30 30" version="1.1" xmlns="http://www.w3.org/2000/svg" xmlns:xlink="http://www.w3.org/1999/xlink">
    <!-- Generator: Sketch 49.3 (51167) - http://www.bohemiancoding.com/sketch -->
    <title>Group 9</title>
    <desc>Created with Sketch.</desc>
    <defs></defs>
    <g id="Page-1" stroke="none" stroke-width="1" fill="none" fill-rule="evenodd">
        <g id="v1" transform="translate(-764.000000, -3333.000000)">
            <g id="footer" transform="translate(0.000000, 3136.000000)">
                <g id="Group-12" transform="translate(549.000000, 197.000000)">
                    <g id="Group-9" transform="translate(215.000000, 0.000000)">
                        <circle id="Oval-2" fill="#FFFFFF" cx="15" cy="15" r="15"></circle>
                        <path d="M11.6359682,15.4191378 L13.0453069,15.4191378 L13.0453069,21.2211998 C13.0453069,21.3357589 13.1381194,21.4285714 13.2526786,21.4285714 L15.642274,21.4285714 C15.7568331,21.4285714 15.8496456,21.3357589 15.8496456,21.2211998 L15.8496456,15.4464844 L17.4698214,15.4464844 C17.5751646,15.4464844 17.6638086,15.367433 17.6758371,15.262793 L17.9219057,13.1267746 C17.9286607,13.0680134 17.910053,13.0091518 17.8707282,12.9650558 C17.8313783,12.9209347 17.775053,12.8956724 17.7159403,12.8956724 L15.8497461,12.8956724 L15.8497461,11.5566964 C15.8497461,11.1530776 16.0670619,10.9483929 16.4957673,10.9483929 C16.5568638,10.9483929 17.7159403,10.9483929 17.7159403,10.9483929 C17.8304994,10.9483929 17.9233119,10.8555301 17.9233119,10.7410212 L17.9233119,8.78033203 C17.9233119,8.66577288 17.8304994,8.57296038 17.7159403,8.57296038 L16.0343415,8.57296038 C16.0224888,8.57238281 15.9961468,8.57142857 15.9573242,8.57142857 C15.6655525,8.57142857 14.65137,8.62870815 13.8502344,9.36570871 C12.9625893,10.1824386 13.0859877,11.1603097 13.1154688,11.3298633 L13.1154688,12.8956222 L11.6359431,12.8956222 C11.5213839,12.8956222 11.4285714,12.9884347 11.4285714,13.1029939 L11.4285714,15.2117411 C11.4285965,15.3262751 11.521409,15.4191378 11.6359682,15.4191378 Z" id="Shape" fill="#00699A" fill-rule="nonzero"></path>
                    </g>
                </g>
            </g>
        </g>
    </g>
</svg>