<?xml version="1.0" encoding="UTF-8"?>
<svg width="30px" height="30px" viewBox="0 0 30 30" version="1.1" xmlns="http://www.w3.org/2000/svg" xmlns:xlink="http://www.w3.org/1999/xlink">
    <!-- Generator: Sketch 49.3 (51167) - http://www.bohemiancoding.com/sketch -->
    <title>Group 10</title>
    <desc>Created with Sketch.</desc>
    <defs></defs>
    <g id="Page-1" stroke="none" stroke-width="1" fill="none" fill-rule="evenodd">
        <g id="v1" transform="translate(-813.000000, -3333.000000)">
            <g id="footer" transform="translate(0.000000, 3136.000000)">
                <g id="Group-12" transform="translate(549.000000, 197.000000)">
                    <g id="Group-10" transform="translate(264.000000, 0.000000)">
                        <circle id="Oval-2" fill="#FFFFFF" cx="15" cy="15" r="15"></circle>
                        <path d="M13.4337227,17.0007353 L13.4337227,12.3742647 L17.5240797,14.6875 L13.4337227,17.0007353 Z M22.5334726,10.9761555 C22.3522543,10.3152311 21.8215434,9.79411765 21.1484467,9.61617647 C19.9187507,9.28571429 14.999967,9.28571429 14.999967,9.28571429 C14.999967,9.28571429 10.0811832,9.28571429 8.85148729,9.60346639 C8.19133473,9.78140756 7.64767969,10.3152311 7.46646134,10.9761555 C7.14285714,12.1836134 7.14285714,14.6875 7.14285714,14.6875 C7.14285714,14.6875 7.14285714,17.2040966 7.46646134,18.3988445 C7.64767969,19.0597689 8.17839056,19.5808824 8.85148729,19.7588235 C10.0941274,20.0892857 14.999967,20.0892857 14.999967,20.0892857 C14.999967,20.0892857 19.9187507,20.0892857 21.1484467,19.7715336 C21.8215434,19.5934653 22.3522543,19.072479 22.5334726,18.4115546 C22.8570768,17.2040966 22.8570768,14.7002101 22.8570768,14.7002101 C22.8570768,14.7002101 22.870021,12.1836134 22.5334726,10.9761555 Z" id="Fill-1" fill="#00699A"></path>
                    </g>
                </g>
            </g>
        </g>
    </g>
</svg>