<?xml version="1.0" encoding="UTF-8"?>
<svg width="30px" height="30px" viewBox="0 0 30 30" version="1.1" xmlns="http://www.w3.org/2000/svg" xmlns:xlink="http://www.w3.org/1999/xlink">
    <!-- Generator: Sketch 49.3 (51167) - http://www.bohemiancoding.com/sketch -->
    <title>Group 11</title>
    <desc>Created with Sketch.</desc>
    <defs></defs>
    <g id="Page-1" stroke="none" stroke-width="1" fill="none" fill-rule="evenodd">
        <g id="v1" transform="translate(-862.000000, -3333.000000)">
            <g id="footer" transform="translate(0.000000, 3136.000000)">
                <g id="Group-12" transform="translate(549.000000, 197.000000)">
                    <g id="Group-11" transform="translate(313.000000, 0.000000)">
                        <circle id="Oval-2" fill="#FFFFFF" cx="15" cy="15" r="15"></circle>
                        <path d="M20.5676563,17.332887 C21.1126214,17.8643055 21.6877803,18.364253 22.1765611,18.9492556 C22.3924743,19.2092283 22.5968683,19.4774694 22.7532602,19.7791684 C22.9748528,20.2080336 22.7741488,20.6799712 22.3891373,20.7055775 L19.9957703,20.7044879 C19.3784811,20.7556364 18.8860424,20.5074573 18.4719922,20.085899 C18.14063,19.748787 17.8337503,19.3900106 17.5151267,19.0415216 C17.3845006,18.8991006 17.247778,18.7650763 17.0844554,18.6591259 C16.7577458,18.4473212 16.4741291,18.5121541 16.287415,18.852503 C16.0972677,19.1986846 16.0541107,19.5819776 16.0354361,19.9677704 C16.0097986,20.53066 15.8394489,20.6786573 15.2733385,20.7044238 C14.0634993,20.761405 12.9152992,20.5786037 11.8486321,19.9690203 C10.9082272,19.4316409 10.1790187,18.6729706 9.54427429,17.8141185 C8.30850885,16.1417621 7.36210369,14.3040706 6.51154231,12.4149101 C6.32007936,11.9892817 6.4601069,11.7608122 6.93030934,11.752704 C7.71108157,11.7375454 8.49175753,11.738635 9.27346027,11.7516144 C9.5908004,11.7562614 9.80087379,11.9380371 9.92341392,12.2374608 C10.3458389,13.2748839 10.8627279,14.2618955 11.5115264,15.1767674 C11.6843147,15.4203315 11.8605043,15.6639277 12.1113602,15.835352 C12.3889125,16.0251718 12.6002372,15.9622618 12.7307991,15.6534481 C12.8136477,15.4576353 12.849938,15.246728 12.8686127,15.0370385 C12.9304763,14.3155438 12.9386264,13.5952669 12.8301404,12.8763039 C12.7635278,12.4276011 12.51049,12.1371188 12.0622029,12.0522239 C11.8334549,12.0089271 11.8674992,11.923904 11.9782634,11.793501 C12.1706248,11.5685888 12.3515632,11.4285714 12.7122528,11.4285714 L15.4171202,11.4285714 C15.8429463,11.5125049 15.9375066,11.7035746 15.9958087,12.1315104 L15.9981189,15.132381 C15.9934663,15.2980367 16.0809675,15.7896837 16.3797293,15.8993197 C16.6188414,15.9773884 16.7764525,15.7863187 16.9199455,15.6348923 C17.5675568,14.9483939 18.0297696,14.1370689 18.4426968,13.2969649 C18.6259455,12.9275486 18.7835246,12.543935 18.9362264,12.1606099 C19.0493651,11.8761847 19.2269023,11.7362314 19.5476757,11.7424167 L22.1509557,11.7447241 C22.228157,11.7447241 22.3062566,11.7458458 22.3810193,11.7586329 C22.8196802,11.8333045 22.9399101,12.0217783 22.8044068,12.449618 C22.5909322,13.1208616 22.1755664,13.6802579 21.7694417,14.2422181 C21.335305,14.8421871 20.8709744,15.4216455 20.4404636,16.0251718 C20.0448954,16.576396 20.0763085,16.8541873 20.5676563,17.332887 Z" id="Shape" fill="#00699A" fill-rule="nonzero"></path>
                    </g>
                </g>
            </g>
        </g>
    </g>
</svg>