<?xml version="1.0" encoding="utf-8"?>
<!-- Generator: Adobe Illustrator 24.0.2, SVG Export Plug-In . SVG Version: 6.00 Build 0)  -->
<svg version="1.1" id="Capa_1" xmlns="http://www.w3.org/2000/svg" xmlns:xlink="http://www.w3.org/1999/xlink" x="0px" y="0px"
	 viewBox="0 0 512 512" style="enable-background:new 0 0 512 512;" xml:space="preserve">
<style type="text/css">
	.st0{fill:#FFFFFF;}
</style>
<g>
	<path class="st0" d="M392.3,136.3c-24.8,0-65.1,9.3-116.1,53.7c-3.1,2.7-3.5,7.5-0.7,10.6s7.5,3.5,10.6,0.7
		c47.5-41.3,84-50,106.2-50c57.7,0,104.7,47,104.7,104.7s-47,104.7-104.7,104.7c-29.5,0-63.4-14.9-98.2-43.2
		c-27.9-22.7-47.4-46.6-51.1-51.2c-0.2-0.2-4.9-6-12.7-14.4l-0.8-1c-18.7-20-66.9-66.5-109.8-66.5c-39.5,0-71.6,32.1-71.6,71.6
		s32.1,71.6,71.6,71.6c39.1,0,82.6-38.7,104.2-60.6c3,3.3,5.5,6.3,7.4,8.6c3.8,4.8,24.3,29.9,53.3,53.5
		c38,30.9,74.2,46.6,107.6,46.6c66,0,119.7-53.7,119.7-119.7S458.3,136.3,392.3,136.3L392.3,136.3z M119.7,312.6
		c-31.2,0-56.6-25.4-56.6-56.6s25.4-56.6,56.6-56.6c34.3,0,76.2,38.5,94,56.6C195.9,274.2,154.1,312.6,119.7,312.6z"/>
	<path class="st0" d="M227,309.8c-48,42.1-84.8,50.9-107.3,50.9C62,360.7,15,313.7,15,256s47-104.7,104.7-104.7
		c29.5,0,63.4,14.9,98.2,43.2c27.9,22.7,47.4,46.6,51.1,51.2c0.2,0.2,13.2,15.1,13.5,15.4c18.7,20,67,66.5,109.8,66.5
		c39.5,0,71.6-32.1,71.6-71.6s-32.1-71.6-71.6-71.6c-39.1,0-82.6,38.7-104.2,60.6c-3-3.3-5.4-6.3-7.4-8.6
		c-3.8-4.8-24.3-29.9-53.3-53.5c-38-30.9-74.2-46.6-107.6-46.6C53.7,136.3,0,190,0,256s53.7,119.7,119.7,119.7
		c25,0,65.7-9.5,117.2-54.6c3.1-2.7,3.4-7.5,0.7-10.6S230.1,307.1,227,309.8L227,309.8z M392.3,199.4c31.2,0,56.6,25.4,56.6,56.6
		s-25.4,56.6-56.6,56.6c-34.3,0-76.2-38.5-94-56.6C316.1,237.8,357.9,199.4,392.3,199.4L392.3,199.4z"/>
</g>
</svg>
