<svg xmlns="http://www.w3.org/2000/svg" xmlns:xlink="http://www.w3.org/1999/xlink"><symbol id="icon-artw" viewBox="0 0 58 12">
    <!-- Generator: Sketch 49.3 (51167) - http://www.bohemiancoding.com/sketch -->
    <title>white</title>
    <desc>Created with Sketch.</desc>
    
    <g id="Page-1" stroke="none" stroke-width="1" fill="none" fill-rule="evenodd">
        <g id="v1" transform="translate(-1232.000000, -3340.000000)" fill="#FFFFFF" fill-rule="nonzero">
            <g id="footer" transform="translate(0.000000, 3136.000000)">
                <g id="white" transform="translate(1232.000000, 204.000000)">
                    <polygon id="Shape" points="9.72525 9.0195 7.35075 9.0195 7.35075 11.859 12.8475 11.859 12.8475 0.66675 8.26725 0.66675 0 11.859 3.8385 11.859 9.72525 3.408"/>
                    <polygon id="Shape" points="36.699 3.5055 36.699 0.66675 26.26125 0.66675 26.26125 3.5055 30.024 3.5055 30.024 11.91675 33.2655 11.91675 33.2655 3.5055"/>
                    <polygon id="Shape" points="41.148 7.50675 41.148 0.66675 38.02575 0.66675 38.02575 11.859 41.63025 11.859 46.19175 5.35425 46.19175 11.8875 49.48275 11.8875 57.75 0.6945 53.919 0.6945 49.16775 7.53525 49.16775 0.6945 49.1535 0.6945 49.1535 0.66675 45.9 0.66675"/>
                    <path d="M21.282,0.675 L19.446,0.675 L19.4415,0.666 L15.07125,0.666 L15.07125,11.916 L18.23925,11.916 L18.23925,9.225 L20.39775,9.225 L22.152,11.91675 L26.08575,11.91675 L23.67225,8.6595 L24.138,8.2635 C24.3765,8.06025 24.59325,7.83075 24.78075,7.5795 C24.924,7.3875 25.04475,7.17525 25.1505,6.945 L25.152,6.942 C25.31025,6.59925 25.43025,6.23475 25.515,5.886 L25.51275,5.895 L25.51425,5.88675 C25.557,5.71275 25.58925,5.54475 25.611,5.38725 C25.63275,5.22675 25.64475,5.085 25.64475,4.9485 C25.64475,3.82575 25.22775,2.79675 24.54825,2.03475 C23.94675,1.35825 23.136,0.8865 22.224,0.726 L22.21725,0.72525 L21.825,0.67575 L21.816,0.675 C21.7785,0.6735 21.744,0.672 21.702,0.67125 L21.69975,0.67125 C21.651,0.6705 21.594,0.66975 21.5385,0.66975 C21.483,0.66975 21.429,0.66975 21.38175,0.67125 L21.3765,0.67125 L21.37425,0.67125 C21.3465,0.672 21.321,0.67275 21.29625,0.6735 L21.282,0.675 Z M21.80625,3.64125 L21.80775,3.64125 C21.9615,3.714 22.101,3.81825 22.221,3.94875 C22.34475,4.08375 22.43925,4.236 22.5075,4.4055 L22.50975,4.4115 L22.5075,4.407 C22.57425,4.57575 22.61175,4.75875 22.61175,4.947 L22.61175,4.9485 L22.61175,4.95075 C22.6125,5.15925 22.572,5.3595 22.50675,5.526 L22.506,5.5275 C22.44075,5.6955 22.3425,5.84775 22.22775,5.97 L22.22625,5.9715 L22.22325,5.9745 C22.10775,6.096 21.96675,6.1965 21.8145,6.26325 C21.66375,6.33075 21.486,6.36975 21.30975,6.369 L21.31125,6.369 L21.30975,6.369 L21.3075,6.369 L21.09825,6.369 L19.0845,6.369 L19.068,6.369 L18.23925,6.36901062 L18.23925,3.53174012 L21.3195,3.53175 C21.486,3.531 21.66075,3.573 21.80625,3.64125 Z" id="Shape"/>
                </g>
            </g>
        </g>
    </g>
</symbol><symbol id="icon-facebook" viewBox="0 0 30 30">
    <!-- Generator: Sketch 49.3 (51167) - http://www.bohemiancoding.com/sketch -->
    <title>Group 9</title>
    <desc>Created with Sketch.</desc>
    
    <g id="Page-1" stroke="none" stroke-width="1" fill="none" fill-rule="evenodd">
        <g id="v1" transform="translate(-764.000000, -3333.000000)">
            <g id="footer" transform="translate(0.000000, 3136.000000)">
                <g id="Group-12" transform="translate(549.000000, 197.000000)">
                    <g id="Group-9" transform="translate(215.000000, 0.000000)">
                        <circle id="Oval-2" fill="#FFFFFF" cx="15" cy="15" r="15"/>
                        <path d="M11.6359682,15.4191378 L13.0453069,15.4191378 L13.0453069,21.2211998 C13.0453069,21.3357589 13.1381194,21.4285714 13.2526786,21.4285714 L15.642274,21.4285714 C15.7568331,21.4285714 15.8496456,21.3357589 15.8496456,21.2211998 L15.8496456,15.4464844 L17.4698214,15.4464844 C17.5751646,15.4464844 17.6638086,15.367433 17.6758371,15.262793 L17.9219057,13.1267746 C17.9286607,13.0680134 17.910053,13.0091518 17.8707282,12.9650558 C17.8313783,12.9209347 17.775053,12.8956724 17.7159403,12.8956724 L15.8497461,12.8956724 L15.8497461,11.5566964 C15.8497461,11.1530776 16.0670619,10.9483929 16.4957673,10.9483929 C16.5568638,10.9483929 17.7159403,10.9483929 17.7159403,10.9483929 C17.8304994,10.9483929 17.9233119,10.8555301 17.9233119,10.7410212 L17.9233119,8.78033203 C17.9233119,8.66577288 17.8304994,8.57296038 17.7159403,8.57296038 L16.0343415,8.57296038 C16.0224888,8.57238281 15.9961468,8.57142857 15.9573242,8.57142857 C15.6655525,8.57142857 14.65137,8.62870815 13.8502344,9.36570871 C12.9625893,10.1824386 13.0859877,11.1603097 13.1154688,11.3298633 L13.1154688,12.8956222 L11.6359431,12.8956222 C11.5213839,12.8956222 11.4285714,12.9884347 11.4285714,13.1029939 L11.4285714,15.2117411 C11.4285965,15.3262751 11.521409,15.4191378 11.6359682,15.4191378 Z" id="Shape" fill="#00699A" fill-rule="nonzero"/>
                    </g>
                </g>
            </g>
        </g>
    </g>
</symbol><symbol id="icon-vk" viewBox="0 0 30 30">
    <!-- Generator: Sketch 49.3 (51167) - http://www.bohemiancoding.com/sketch -->
    <title>Group 11</title>
    <desc>Created with Sketch.</desc>
    
    <g id="Page-1" stroke="none" stroke-width="1" fill="none" fill-rule="evenodd">
        <g id="v1" transform="translate(-862.000000, -3333.000000)">
            <g id="footer" transform="translate(0.000000, 3136.000000)">
                <g id="Group-12" transform="translate(549.000000, 197.000000)">
                    <g id="Group-11" transform="translate(313.000000, 0.000000)">
                        <circle id="Oval-2" fill="#FFFFFF" cx="15" cy="15" r="15"/>
                        <path d="M20.5676563,17.332887 C21.1126214,17.8643055 21.6877803,18.364253 22.1765611,18.9492556 C22.3924743,19.2092283 22.5968683,19.4774694 22.7532602,19.7791684 C22.9748528,20.2080336 22.7741488,20.6799712 22.3891373,20.7055775 L19.9957703,20.7044879 C19.3784811,20.7556364 18.8860424,20.5074573 18.4719922,20.085899 C18.14063,19.748787 17.8337503,19.3900106 17.5151267,19.0415216 C17.3845006,18.8991006 17.247778,18.7650763 17.0844554,18.6591259 C16.7577458,18.4473212 16.4741291,18.5121541 16.287415,18.852503 C16.0972677,19.1986846 16.0541107,19.5819776 16.0354361,19.9677704 C16.0097986,20.53066 15.8394489,20.6786573 15.2733385,20.7044238 C14.0634993,20.761405 12.9152992,20.5786037 11.8486321,19.9690203 C10.9082272,19.4316409 10.1790187,18.6729706 9.54427429,17.8141185 C8.30850885,16.1417621 7.36210369,14.3040706 6.51154231,12.4149101 C6.32007936,11.9892817 6.4601069,11.7608122 6.93030934,11.752704 C7.71108157,11.7375454 8.49175753,11.738635 9.27346027,11.7516144 C9.5908004,11.7562614 9.80087379,11.9380371 9.92341392,12.2374608 C10.3458389,13.2748839 10.8627279,14.2618955 11.5115264,15.1767674 C11.6843147,15.4203315 11.8605043,15.6639277 12.1113602,15.835352 C12.3889125,16.0251718 12.6002372,15.9622618 12.7307991,15.6534481 C12.8136477,15.4576353 12.849938,15.246728 12.8686127,15.0370385 C12.9304763,14.3155438 12.9386264,13.5952669 12.8301404,12.8763039 C12.7635278,12.4276011 12.51049,12.1371188 12.0622029,12.0522239 C11.8334549,12.0089271 11.8674992,11.923904 11.9782634,11.793501 C12.1706248,11.5685888 12.3515632,11.4285714 12.7122528,11.4285714 L15.4171202,11.4285714 C15.8429463,11.5125049 15.9375066,11.7035746 15.9958087,12.1315104 L15.9981189,15.132381 C15.9934663,15.2980367 16.0809675,15.7896837 16.3797293,15.8993197 C16.6188414,15.9773884 16.7764525,15.7863187 16.9199455,15.6348923 C17.5675568,14.9483939 18.0297696,14.1370689 18.4426968,13.2969649 C18.6259455,12.9275486 18.7835246,12.543935 18.9362264,12.1606099 C19.0493651,11.8761847 19.2269023,11.7362314 19.5476757,11.7424167 L22.1509557,11.7447241 C22.228157,11.7447241 22.3062566,11.7458458 22.3810193,11.7586329 C22.8196802,11.8333045 22.9399101,12.0217783 22.8044068,12.449618 C22.5909322,13.1208616 22.1755664,13.6802579 21.7694417,14.2422181 C21.335305,14.8421871 20.8709744,15.4216455 20.4404636,16.0251718 C20.0448954,16.576396 20.0763085,16.8541873 20.5676563,17.332887 Z" id="Shape" fill="#00699A" fill-rule="nonzero"/>
                    </g>
                </g>
            </g>
        </g>
    </g>
</symbol><symbol id="icon-youtube" viewBox="0 0 30 30">
    <!-- Generator: Sketch 49.3 (51167) - http://www.bohemiancoding.com/sketch -->
    <title>Group 10</title>
    <desc>Created with Sketch.</desc>
    
    <g id="Page-1" stroke="none" stroke-width="1" fill="none" fill-rule="evenodd">
        <g id="v1" transform="translate(-813.000000, -3333.000000)">
            <g id="footer" transform="translate(0.000000, 3136.000000)">
                <g id="Group-12" transform="translate(549.000000, 197.000000)">
                    <g id="Group-10" transform="translate(264.000000, 0.000000)">
                        <circle id="Oval-2" fill="#FFFFFF" cx="15" cy="15" r="15"/>
                        <path d="M13.4337227,17.0007353 L13.4337227,12.3742647 L17.5240797,14.6875 L13.4337227,17.0007353 Z M22.5334726,10.9761555 C22.3522543,10.3152311 21.8215434,9.79411765 21.1484467,9.61617647 C19.9187507,9.28571429 14.999967,9.28571429 14.999967,9.28571429 C14.999967,9.28571429 10.0811832,9.28571429 8.85148729,9.60346639 C8.19133473,9.78140756 7.64767969,10.3152311 7.46646134,10.9761555 C7.14285714,12.1836134 7.14285714,14.6875 7.14285714,14.6875 C7.14285714,14.6875 7.14285714,17.2040966 7.46646134,18.3988445 C7.64767969,19.0597689 8.17839056,19.5808824 8.85148729,19.7588235 C10.0941274,20.0892857 14.999967,20.0892857 14.999967,20.0892857 C14.999967,20.0892857 19.9187507,20.0892857 21.1484467,19.7715336 C21.8215434,19.5934653 22.3522543,19.072479 22.5334726,18.4115546 C22.8570768,17.2040966 22.8570768,14.7002101 22.8570768,14.7002101 C22.8570768,14.7002101 22.870021,12.1836134 22.5334726,10.9761555 Z" id="Fill-1" fill="#00699A"/>
                    </g>
                </g>
            </g>
        </g>
    </g>
</symbol></svg>